<?xml version="1.0" encoding="UTF-8" standalone="no"?>
<svg
   height="24"
   viewBox="0 -960 960 960"
   width="24"
   version="1.1"
   id="svg1"
   xmlns="http://www.w3.org/2000/svg"
   xmlns:svg="http://www.w3.org/2000/svg">
  <defs
     id="defs1" />
  <path
     d="m 540,-80 v -80 h 80 q 0,33 -23.5,56.5 Q 573,-80 540,-80 Z"
     id="path10"
     style="fill:#7cc7f3;fill-opacity:1" />
  <path
     d="m 400,-80 v -80 h 80 v 80 z"
     id="path9"
     style="fill:#7cc7f3;fill-opacity:1" />
  <path
     d="M 360,-320 H 720 V -800 H 360 Z"
     id="path8" />
  <path
     d="m 360,-240 q -33,0 -56.5,-23.5 Q 280,-287 280,-320 v -480 q 0,-33 23.5,-56.5 Q 327,-880 360,-880 h 360 q 33,0 56.5,23.5 23.5,23.5 23.5,56.5 v 480 q 0,33 -23.5,56.5 Q 753,-240 720,-240 Z"
     id="path7"
     style="fill:#265997;fill-opacity:1" />
  <path
     d="m 260,-80 v -80 h 80 v 80 z"
     id="path6"
     style="fill:#7cc7f3;fill-opacity:1" />
  <path
     d="m 120,-640 q 0,-33 23.5,-56.5 Q 167,-720 200,-720 v 80 z"
     id="path5"
     style="fill:#7cc7f3;fill-opacity:1" />
  <path
     d="m 120,-500 v -80 h 80 v 80 z"
     id="path4"
     style="fill:#7cc7f3;fill-opacity:1" />
  <path
     d="m 120,-360 v -80 h 80 v 80 z"
     id="path3"
     style="fill:#7cc7f3;fill-opacity:1" />
  <path
     d="m 120,-220 v -80 h 80 v 80 z"
     id="path2"
     style="fill:#7cc7f3;fill-opacity:1" />
  <path
     d="m 200,-80 q -33,0 -56.5,-23.5 Q 120,-127 120,-160 h 80 z"
     id="path1"
     style="fill:#7cc7f3;fill-opacity:1" />
</svg>
